<?xml version="1.0" encoding="utf-8"?>
<!-- Generator: Adobe Illustrator 28.0.0, SVG Export Plug-In . SVG Version: 6.00 Build 0)  -->
<svg version="1.1" xmlns="http://www.w3.org/2000/svg" xmlns:xlink="http://www.w3.org/1999/xlink" x="0px" y="0px"
	 viewBox="0 0 2000 2000" style="enable-background:new 0 0 2000 2000;" xml:space="preserve">
<style type="text/css">
	.st0{fill:#FFFFFF;}
</style>
<g id="back">
	<rect width="2000" height="2000"/>
</g>
<g id="logo">
	<g>
		<path class="st0" d="M418.75,1463.48c-20.59-10.06-44.46-15.09-71.6-15.09H230.98v245.68h116.17c27.14,0,51.01-5.03,71.6-15.09
			c20.59-10.06,36.68-24.27,48.26-42.64c11.58-18.37,17.37-40.07,17.37-65.11c0-25.27-5.79-47.03-17.37-65.28
			C455.42,1487.7,439.33,1473.55,418.75,1463.48z M405.41,1607.56c-5.85,10.18-13.98,17.9-24.39,23.17
			c-10.41,5.26-22.64,7.9-36.68,7.9h-43.87v-134.78h43.87c14.04,0,26.26,2.63,36.68,7.9c10.41,5.26,18.54,12.93,24.39,22.99
			c5.85,10.06,8.77,22.23,8.77,36.5C414.18,1585.27,411.26,1597.38,405.41,1607.56z"/>
		<polygon class="st0" points="589.67,1595.45 698.82,1595.45 698.82,1543.5 589.67,1543.5 589.67,1502.09 713.56,1502.09 
			713.56,1448.39 520.88,1448.39 520.88,1694.07 718.13,1694.07 718.13,1640.37 589.67,1640.37 		"/>
		<polygon class="st0" points="865.45,1608.53 798.85,1448.39 723.74,1448.39 828.68,1694.07 897.12,1694.07 1002.42,1448.39 
			933.63,1448.39 		"/>
		<polygon class="st0" points="1085.6,1595.45 1194.75,1595.45 1194.75,1543.5 1085.6,1543.5 1085.6,1502.09 1209.49,1502.09 
			1209.49,1448.39 1016.81,1448.39 1016.81,1694.07 1214.05,1694.07 1214.05,1640.37 1085.6,1640.37 		"/>
		<polygon class="st0" points="1429.55,1448.39 1361.37,1608.53 1294.78,1448.39 1219.67,1448.39 1324.61,1694.07 1393.05,1694.07 
			1498.34,1448.39 		"/>
		<path class="st0" d="M1759.65,1520.34c-6.9-15.44-16.44-28.96-28.61-40.54c-12.17-11.58-26.5-20.53-42.99-26.85
			c-16.5-6.32-34.69-9.48-54.58-9.48c-19.65,0-37.79,3.16-54.4,9.48c-16.62,6.32-31.06,15.27-43.35,26.85
			c-12.28,11.58-21.82,25.1-28.6,40.54c-6.79,15.44-10.18,32.41-10.18,50.89c0,18.49,3.39,35.45,10.18,50.89
			c6.78,15.44,16.32,28.96,28.6,40.54c12.28,11.58,26.73,20.53,43.35,26.85c16.61,6.32,34.75,9.48,54.4,9.48
			c19.89,0,38.08-3.16,54.58-9.48c16.5-6.32,30.82-15.21,42.99-26.67c12.16-11.46,21.7-24.97,28.61-40.54
			c6.9-15.56,10.35-32.58,10.35-51.07C1770,1552.75,1766.55,1535.78,1759.65,1520.34z M1694.72,1600.01
			c-3.39,8.66-8.07,16.09-14.04,22.29c-5.97,6.2-12.99,10.94-21.06,14.21c-8.07,3.28-16.79,4.91-26.15,4.91
			c-9.36,0-18.08-1.63-26.15-4.91c-8.07-3.27-15.09-8.01-21.06-14.21c-5.97-6.2-10.65-13.63-14.04-22.29
			c-3.39-8.65-5.09-18.25-5.09-28.78c0-10.76,1.69-20.41,5.09-28.95c3.39-8.54,8.07-15.91,14.04-22.11
			c5.97-6.2,12.99-10.94,21.06-14.22c8.07-3.27,16.79-4.91,26.15-4.91c9.36,0,18.08,1.64,26.15,4.91
			c8.07,3.28,15.09,8.02,21.06,14.22c5.97,6.2,10.65,13.57,14.04,22.11c3.39,8.54,5.09,18.19,5.09,28.95
			C1699.81,1581.76,1698.1,1591.36,1694.72,1600.01z"/>
		<path class="st0" d="M1084.42,991.42c-88.6,91.48-181.47,198.08-270.82,310.73c18.73,7.28,37.98,13.49,57.71,18.57
			c84.08-105.04,170.9-204.22,253.85-289.86c47.71-49.25,101.77-105.09,184-151.8c73.2-41.59,144.57-62.23,212.29-61.45v-0.26
			c0-19.07-1.03-37.92-3.04-56.45c-76.76-0.14-156.47,22.97-237.25,68.86C1191.87,880.49,1134.78,939.44,1084.42,991.42z"/>
		<path class="st0" d="M1488.08,1000.98c6.8-17.99,12.63-36.44,17.39-55.32c-90.71-9.12-175.94,8.54-253.83,52.67
			c-58.19,33.02-99.85,72.64-136.61,107.58l-3.59,3.42c-67.4,64.05-136.25,139.4-201.09,219.87c21.94,3.9,44.34,6.41,67.14,7.46
			c56.38-67.93,115.29-131.37,173.02-186.23l3.59-3.42c36.08-34.31,73.37-69.78,125.52-99.35
			C1344.63,1010.8,1413.21,995.39,1488.08,1000.98z"/>
		<path class="st0" d="M1333.72,1128.38c-41.16,7.01-78.68,19.96-111.57,38.5c-31.28,17.66-58.72,40.01-82.93,59.73
			c-41.21,33.57-79.68,70.44-114.93,110.09c30.61-1.31,60.56-5.27,89.58-11.67c19.57-19.04,39.99-37.21,61.18-54.48
			c22.45-18.28,47.88-39.02,74.97-54.31c24.1-13.59,64.85-30.6,123.45-35.63c17.71-18.12,34.1-37.54,49.01-58.08
			C1391.68,1121.63,1362.03,1123.57,1333.72,1128.38z"/>
		<path class="st0" d="M679.57,704.64c134.43,0,244.42,62.79,287.02,163.86c3.68,8.74,6.77,17.61,9.28,26.56l42.26-49.07
			c-24.6-57.59-67.95-106.34-125.41-141.08c-60.27-36.44-133.97-55.68-213.15-55.68H569.39c69.77-175.43,237.94-290.75,429.9-290.75
			c175.13,0,334.16,98.46,412.81,253.16c-34.89,14.43-68.91,31.04-101.43,49.55c-118.08,67.19-195.66,150.91-252.96,212.08
			c-34.81,37.18-88.44,98.46-98.68,110.16c-28.17,32.21-56.68,65.56-56.68,65.56c-7.61,8.9-15.2,17.83-22.8,26.82
			c-18.95,22.4-37.85,45.05-56.69,67.89c-31.51,38.19-62.84,76.98-93.96,116.31c16.29,10.07,33.16,19.24,50.56,27.47
			c14.43-18.18,28.9-36.21,43.4-54.15c8.44-10.45,16.91-20.84,25.39-31.2c10.39-12.75,20.84-25.41,31.3-38.02
			c7.59-9.16,15.19-18.28,22.8-27.35c18.85-22.51,37.76-44.77,56.69-66.81c7.58-8.83,15.19-17.63,22.78-26.39
			c45.96-54.34,86.47-98.78,117.68-131.99c93.8-99.73,136.8-132.9,161.89-151.23c23.38-17.09,48.86-33.71,77.29-49.87
			c38.74-22.02,79.73-41.2,121.82-56.97l27.95-10.48l-12.15-27.93c-82.41-190.32-269.65-313.29-477.03-313.29
			c-113.59,0-221.5,35.99-312.04,104.09c-43.55,32.74-81.54,71.91-112.92,116.44c-13.9,19.71-26.34,40.25-37.3,61.54
			c-0.03,0.05-0.05,0.09-0.07,0.14c-10.85,21.06-20.22,42.84-28.07,65.23h-0.01c-0.04,0.11-0.07,0.22-0.11,0.33
			c0,0.01-0.01,0.01-0.01,0.02h0c-6.3,17.93-11.64,36.3-15.96,55.06H679.57z"/>
		<path class="st0" d="M1117.9,554.72c-1.77-55.43-46.91-100.57-102.34-102.34c-61.2-1.95-111.22,48.06-109.27,109.27
			c1.77,55.43,46.91,100.57,102.34,102.34C1069.83,665.94,1119.85,615.93,1117.9,554.72z"/>
		<path class="st0" d="M1393.11,745.34c37.6-11.89,74.84-17.99,111.41-18.27c-2.73-16.71-6.41-33.12-11-49.14
			c-2.43,0.65-4.87,1.38-7.31,2.15C1441.44,694.15,1406.7,719.64,1393.11,745.34z"/>
		<path class="st0" d="M1446.43,862.6c-52.83,11.17-94.37,38.02-107.58,66.38c50.68-15.77,104.05-20.91,159.52-15.34l3.09,0.3
			c3.65-18.26,6.21-36.91,7.61-55.87C1489.93,856.56,1468.53,857.93,1446.43,862.6z"/>
		<path class="st0" d="M1459.09,1046.28c-17.48-2.41-36.82-2.69-56.96-0.42c-59.64,6.75-107.49,33.71-119.32,64.42
			c16.23-5.3,33.25-9.45,50.92-12.46c26.78-4.56,55.1-6.44,84.22-5.56l14.97,0.45C1442.5,1077.79,1451.24,1062.3,1459.09,1046.28z"
			/>
		<path class="st0" d="M820.3,839.94c0,0,41.52,32.48,67.15,79.65c9.73,17.92,15.29,35.4,15.29,35.4
			c2.48,7.82,4.04,14.47,5.01,19.14c13.83-16.05,27.66-32.1,41.5-48.15c-2.63-9.28-5.84-18.49-9.67-27.57
			c-20.6-48.95-57.26-90.38-106.02-119.83c-50.58-30.55-112.41-46.69-178.81-46.69H487.31c-3.18,18.16-5.41,36.64-6.65,55.42h174.08
			C675.3,787.05,754.12,788.17,820.3,839.94z"/>
		<path class="st0" d="M629.94,869.96c5.57,0.13,128.59,4.83,178.36,100.69c20.42,39.34,20.14,77.92,18.11,99.26
			c16.17-19.22,32.34-38.45,48.51-57.67c-1.13-21.22-5.91-42.3-14.48-62.71c-16.68-39.77-46.45-73.41-86.07-97.29
			c-40.89-24.67-90.85-37.69-144.43-37.69H479.58c-0.03,2.46-0.05,4.91-0.05,7.39c0,16.18,0.74,32.21,2.2,48.02H629.94z"/>
		<path class="st0" d="M620.99,1079.58c-18.8-13.31-40.55-13.99-66.28-14.8c-6.88-0.22-12.56-0.12-16.33,0
			c11.27,16.99,23.94,34.8,38.16,53.11c14.36,18.49,28.61,35.33,42.4,50.59c5.86-5.74,16.02-17.44,20.27-35.07
			c1.86-7.71,5.16-21.65-1.55-35.69C633.18,1088.33,626.11,1083.2,620.99,1079.58z"/>
		<path class="st0" d="M569.98,1035.3c54.19,0.89,95.12,26.01,101.89,57.73c1.39,6.53,2.32,17.92-4.19,33.27
			c3.68-3.15,42.85-37.68,34.31-78.31c-3.13-14.88-11.41-24.68-16.38-30.41c-33.71-38.93-91.01-38.26-105.31-37.7h-76.36
			c6.03,18.97,13.13,37.47,21.2,55.42C540.08,1035.3,555.03,1035.3,569.98,1035.3z"/>
		<path class="st0" d="M729.13,1021.71c5.2,12.44,6.53,25.58,6.53,25.58c3.23,31.6-11.38,56.22-17.83,65.8
			c-25.03,29.09-50.05,58.17-75.08,87.26c0,0,0,0,0,0c10.59,10,21.59,19.55,33,28.62c1.86,1.49,3.71,2.95,5.58,4.4
			c0.6,0.48,1.22,0.96,1.84,1.44c23.79-27.33,47.57-54.68,71.36-82.02c12.61-14.5,22.51-31.11,28.97-49.01
			c3.99-10.98,6.68-22.44,7.94-34.15c1.34-12.58,1.19-26.16-1.49-40.32c-0.05-0.33-0.1-0.67-0.17-1c-0.86-4.4-3.16-14.91-8.47-27.62
			c-0.6-1.43-1.22-2.85-1.86-4.26c-13.07-28.74-35.2-53.05-64.27-70.52c-31.22-18.76-69.27-28.69-110.07-28.69H484.95
			c2.7,18.83,6.44,37.31,11.13,55.42h109.02C663.83,952.63,711.33,979.11,729.13,1021.71z"/>
	</g>
</g>
</svg>
