<?xml version="1.0" encoding="UTF-8"?>
<svg id="_Слой_2" data-name="Слой 2" xmlns="http://www.w3.org/2000/svg" xmlns:xlink="http://www.w3.org/1999/xlink" viewBox="0 0 180.94 180.94">
  <defs>
    <style>
      .cls-1 {
        fill: url(#_Безымянный_градиент_17);
      }

      .cls-2 {
        fill: url(#_Безымянный_градиент_17-2);
      }

      .cls-3 {
        fill: url(#_Безымянный_градиент_17-3);
      }
    </style>
    <linearGradient id="_Безымянный_градиент_17" data-name="Безымянный градиент 17" x1="88.86" y1="3.26" x2="92.19" y2="183.55" gradientUnits="userSpaceOnUse">
      <stop offset="0" stop-color="#eb0754"/>
      <stop offset=".59" stop-color="#e5054a"/>
      <stop offset=".99" stop-color="#df0341"/>
    </linearGradient>
    <linearGradient id="_Безымянный_градиент_17-2" data-name="Безымянный градиент 17" x1="75.87" y1="95.16" x2="99.68" y2="95.16" xlink:href="#_Безымянный_градиент_17"/>
    <linearGradient id="_Безымянный_градиент_17-3" data-name="Безымянный градиент 17" x1="80.68" y1="91.1" x2="104.37" y2="91.1" xlink:href="#_Безымянный_градиент_17"/>
  </defs>
  <g id="_Слой_2-2" data-name="Слой 2">
    <g>
      <path class="cls-1" d="M90.47,0C40.5,0,0,40.5,0,90.47s40.5,90.47,90.47,90.47,90.47-40.5,90.47-90.47S140.43,0,90.47,0Zm0,162.51c-5.94,0-11.71-.72-17.23-2.08v-59.78h.75c.34,0,.63-.26,.67-.6l1.51-14.74c.03-.34-.23-.63-.57-.63h-2.35V48.19c-2.83,1.89-8.96,5.23-10.87,6.14-10.87,5.2-10.39,16.27-10.39,16.27v80.78c-20.17-12.77-33.56-35.27-33.56-60.91,0-39.79,32.26-72.04,72.04-72.04,5.77,0,11.38,.68,16.76,1.96V84.75l-1.11,.05c-.29,.01-.53,.24-.56,.53l-1.37,14.78c-.03,.29,.2,.54,.49,.54h2.55v29.75c2.83-1.89,8.96-5.23,10.87-6.14,10.87-5.2,10.39-16.27,10.39-16.27V29.27c20.43,12.72,34.03,35.37,34.03,61.2,0,39.79-32.26,72.04-72.04,72.04Z"/>
      <path class="cls-2" d="M94.83,94.06c-.22-.29-.52-.53-.87-.62-2.02-.55-3.5-3.54-3.46-4.23,0-.06-.06-.1-.12-.07-.36,.24-1.28,.56-2.87,.63-.18,0-.35,.08-.48,.2-3.57,3.35-6.87,.36-7.68-.5-.11-.12-.12-.3-.02-.42l4.03-4.9-.28-.14c-.32-.16-.52-.02-.8,.2-.84,.64-2.78,1.92-5.05,2.05-.11,0-.2,.09-.21,.2l-1.16,12.09c-.02,.21,.06,.42,.22,.56,4.77,4.28,9.23,6.7,10.35,7.14,1.14,.44,2.72-.34,2.02-1.8,.88,.99,1.79,1.1,2.64,.77,.85-.33,1.47-1.07,.49-2.43,1.25,1.58,2.39,1.41,3.42,.95,1.17-.52,1.07-2.01,1.07-2.01,0,0,.63,1.39,2.41,.53,1.79-.86,1.03-2.09,1.03-2.09,0,0-2.6-3.4-4.68-6.1Z"/>
      <path class="cls-3" d="M103.93,86.23l-1.09-.05c-1.08-.05-2.11-.17-3.09-.64l-5.63-2.85c-1-.48-2.15-.56-3.21-.22l-5.75,1.56c-.23,.07-.43,.21-.59,.4-.49,.59-1.65,2.01-3.84,4.64-.09,.11-.08,.28,.03,.37,2.86,2.25,5.34-.25,5.92-.92,.09-.1,.21-.15,.34-.16,.66,0,2.76-.14,4.31-1.45,.08-.06,.19-.01,.19,.09,.1,3.85,2.41,5.32,3.44,5.59,.3,.08,.57,.25,.76,.5l5.16,6.7c.13,.17,.37,.21,.55,.09l1.33-.6c.24-.17,.39-.43,.42-.72l1.16-11.82c.03-.26-.17-.49-.44-.5Z"/>
    </g>
  </g>
</svg>